<svg width="260" height="80" viewBox="0 0 260 80" fill="none" xmlns="http://www.w3.org/2000/svg">
  <defs>
    <linearGradient id="dlx-blue" x1="0" y1="0" x2="1" y2="1">
      <stop stop-color="#1E9BF0"/>
      <stop offset="1" stop-color="#0056b3"/>
    </linearGradient>
  </defs>

  <!-- Stylized D - evenodd creates transparent inner -->
  <path fill-rule="evenodd" d="M10 15 H45 C60 15 70 25 70 40 C70 55 60 65 45 65 H10 Z M22 27 H42 C50 27 55 32 55 40 C55 48 50 53 42 53 H22 Z" fill="#1E9BF0"/>

  <!-- L -->
  <path d="M80 15 H94 V53 H118 V65 H80 Z" fill="#0f172a"/>

  <!-- X with arrow -->
  <path d="M130 15 L142 15 L160 35 L178 15 L190 15 L166 43 L190 70 H178 L160 50 L142 70 H130 L154 43 Z" fill="#0f172a"/>
  <path d="M150 70 L186 15 L202 15 L166 70 Z" fill="url(#dlx-blue)"/>

  <!-- Solution -->
  <text x="10" y="78" font-family="Georgia, 'Times New Roman', serif" font-size="22" font-weight="600" fill="#0f172a">
    Solution
  </text>

  <!-- Tagline -->
  <text x="10" y="92" font-family="Inter, system-ui, sans-serif" font-size="12" font-weight="500" fill="#475569" letter-spacing="0.3">
    Design. Lead. Transform.
  </text>
</svg>
